<svg xmlns="http://www.w3.org/2000/svg" xmlns:xlink="http://www.w3.org/1999/xlink" contentStyleType="text/css" data-diagram-type="SEQUENCE" height="590px" preserveAspectRatio="none" style="width:934px;height:590px;background:#FFFFFF;" version="1.1" viewBox="0 0 934 590" width="934px" zoomAndPan="magnify"><defs/><g><g><title>_PessoasPageState</title><rect fill="#FFFFFF" height="336.3984" style="stroke:#181818;stroke-width:1;" width="10" x="251.4722" y="155.5625"/></g><g><title>DatabaseHelper</title><rect fill="#FFFFFF" height="29.1328" style="stroke:#181818;stroke-width:1;" width="10" x="551.0654" y="266.0938"/></g><g><title>DatabaseHelper</title><rect fill="#FFFFFF" height="29.1328" style="stroke:#181818;stroke-width:1;" width="10" x="551.0654" y="339.1641"/></g><rect fill="none" height="148.4688" style="stroke:#000000;stroke-width:1.5;" width="745.665" x="172.1416" y="227.8281"/><g><title>Usu.rio</title><rect fill="#000000" fill-opacity="0.00000" height="428.6641" width="8" x="30.6021" y="81.2969"/><line style="stroke:#181818;stroke-width:0.5;stroke-dasharray:5,5;" x1="34" x2="34" y1="81.2969" y2="509.9609"/></g><g><title>_PessoasPageState</title><rect fill="#000000" fill-opacity="0.00000" height="428.6641" width="8" x="252.4722" y="81.2969"/><line style="stroke:#181818;stroke-width:0.5;stroke-dasharray:5,5;" x1="256.1416" x2="256.1416" y1="81.2969" y2="509.9609"/></g><g><title>DatabaseHelper</title><rect fill="#000000" fill-opacity="0.00000" height="428.6641" width="8" x="552.0654" y="81.2969"/><line style="stroke:#181818;stroke-width:0.5;stroke-dasharray:5,5;" x1="555.522" x2="555.522" y1="81.2969" y2="509.9609"/></g><g><title>Database .sqflite.</title><rect fill="#000000" fill-opacity="0.00000" height="428.6641" width="8" x="834.2236" y="81.2969"/><line style="stroke:#181818;stroke-width:0.5;stroke-dasharray:5,5;" x1="837.6406" x2="837.6406" y1="81.2969" y2="509.9609"/></g><g class="participant participant-head" data-participant="User"><text fill="#000000" font-family="sans-serif" font-size="14" lengthAdjust="spacing" textLength="53.2041" x="5" y="77.9951">Usu&#225;rio</text><ellipse cx="34.6021" cy="13.5" fill="#E2E2F0" rx="8" ry="8" style="stroke:#181818;stroke-width:0.5;"/><path d="M34.6021,21.5 L34.6021,48.5 M21.6021,29.5 L47.6021,29.5 M34.6021,48.5 L21.6021,63.5 M34.6021,48.5 L47.6021,63.5" fill="none" style="stroke:#181818;stroke-width:0.5;"/></g><g class="participant participant-tail" data-participant="User"><text fill="#000000" font-family="sans-serif" font-size="14" lengthAdjust="spacing" textLength="53.2041" x="5" y="521.9561">Usu&#225;rio</text><ellipse cx="34.6021" cy="533.7578" fill="#E2E2F0" rx="8" ry="8" style="stroke:#181818;stroke-width:0.5;"/><path d="M34.6021,541.7578 L34.6021,568.7578 M21.6021,549.7578 L47.6021,549.7578 M34.6021,568.7578 L21.6021,583.7578 M34.6021,568.7578 L47.6021,583.7578" fill="none" style="stroke:#181818;stroke-width:0.5;"/></g><g class="participant participant-head" data-participant="View"><rect fill="#E2E2F0" height="30.2969" rx="2.5" ry="2.5" style="stroke:#181818;stroke-width:0.5;" width="148.6611" x="182.1416" y="50"/><text fill="#000000" font-family="sans-serif" font-size="14" lengthAdjust="spacing" textLength="134.6611" x="189.1416" y="69.9951">_PessoasPageState</text></g><g class="participant participant-tail" data-participant="View"><rect fill="#E2E2F0" height="30.2969" rx="2.5" ry="2.5" style="stroke:#181818;stroke-width:0.5;" width="148.6611" x="182.1416" y="508.9609"/><text fill="#000000" font-family="sans-serif" font-size="14" lengthAdjust="spacing" textLength="134.6611" x="189.1416" y="528.9561">_PessoasPageState</text></g><g class="participant participant-head" data-participant="DBH"><rect fill="#E2E2F0" height="30.2969" rx="2.5" ry="2.5" style="stroke:#181818;stroke-width:0.5;" width="127.0869" x="492.522" y="50"/><text fill="#000000" font-family="sans-serif" font-size="14" lengthAdjust="spacing" textLength="113.0869" x="499.522" y="69.9951">DatabaseHelper</text></g><g class="participant participant-tail" data-participant="DBH"><rect fill="#E2E2F0" height="30.2969" rx="2.5" ry="2.5" style="stroke:#181818;stroke-width:0.5;" width="127.0869" x="492.522" y="508.9609"/><text fill="#000000" font-family="sans-serif" font-size="14" lengthAdjust="spacing" textLength="113.0869" x="499.522" y="528.9561">DatabaseHelper</text></g><g class="participant participant-head" data-participant="DB"><rect fill="#E2E2F0" height="30.2969" rx="2.5" ry="2.5" style="stroke:#181818;stroke-width:0.5;" width="139.166" x="768.6406" y="50"/><text fill="#000000" font-family="sans-serif" font-size="14" lengthAdjust="spacing" textLength="125.166" x="775.6406" y="69.9951">Database (sqflite)</text></g><g class="participant participant-tail" data-participant="DB"><rect fill="#E2E2F0" height="30.2969" rx="2.5" ry="2.5" style="stroke:#181818;stroke-width:0.5;" width="139.166" x="768.6406" y="508.9609"/><text fill="#000000" font-family="sans-serif" font-size="14" lengthAdjust="spacing" textLength="125.166" x="775.6406" y="528.9561">Database (sqflite)</text></g><g><title>_PessoasPageState</title><rect fill="#FFFFFF" height="336.3984" style="stroke:#181818;stroke-width:1;" width="10" x="251.4722" y="155.5625"/></g><g><title>DatabaseHelper</title><rect fill="#FFFFFF" height="29.1328" style="stroke:#181818;stroke-width:1;" width="10" x="551.0654" y="266.0938"/></g><g><title>DatabaseHelper</title><rect fill="#FFFFFF" height="29.1328" style="stroke:#181818;stroke-width:1;" width="10" x="551.0654" y="339.1641"/></g><rect fill="#EEEEEE" height="3" style="stroke:#EEEEEE;stroke-width:1;" width="927.8066" x="0" y="111.8633"/><line style="stroke:#000000;stroke-width:1;" x1="0" x2="927.8066" y1="111.8633" y2="111.8633"/><line style="stroke:#000000;stroke-width:1;" x1="0" x2="927.8066" y1="114.8633" y2="114.8633"/><rect fill="#EEEEEE" height="23.1328" style="stroke:#000000;stroke-width:2;" width="136.1035" x="395.8516" y="101.2969"/><text fill="#000000" font-family="sans-serif" font-size="13" font-weight="bold" lengthAdjust="spacing" textLength="117.5776" x="401.8516" y="117.3638">A&#231;&#227;o do usu&#225;rio</text><g class="message" data-participant-1="User" data-participant-2="View"><polygon fill="#181818" points="239.4722,151.5625,249.4722,155.5625,239.4722,159.5625,243.4722,155.5625" style="stroke:#181818;stroke-width:1;"/><line style="stroke:#181818;stroke-width:1;" x1="34.6021" x2="245.4722" y1="155.5625" y2="155.5625"/><text fill="#000000" font-family="sans-serif" font-size="13" font-weight="bold" lengthAdjust="spacing" textLength="9.0454" x="41.6021" y="150.4966">1</text><text fill="#000000" font-family="sans-serif" font-size="13" lengthAdjust="spacing" textLength="184.8247" x="54.6475" y="150.4966">Pressiona "Adicionar/Salvar"</text></g><g class="message" data-participant-1="View" data-participant-2="View"><line style="stroke:#181818;stroke-width:1;" x1="261.4722" x2="303.4722" y1="199.8281" y2="199.8281"/><line style="stroke:#181818;stroke-width:1;" x1="303.4722" x2="303.4722" y1="199.8281" y2="212.8281"/><line style="stroke:#181818;stroke-width:1;" x1="262.4722" x2="303.4722" y1="212.8281" y2="212.8281"/><polygon fill="#181818" points="272.4722,208.8281,262.4722,212.8281,272.4722,216.8281,268.4722,212.8281" style="stroke:#181818;stroke-width:1;"/><text fill="#000000" font-family="sans-serif" font-size="13" font-weight="bold" lengthAdjust="spacing" textLength="9.0454" x="268.4722" y="187.1958">2</text><text fill="#000000" font-family="sans-serif" font-size="13" lengthAdjust="spacing" textLength="110.5" x="281.5176" y="179.6294">valida formul&#225;rio</text><text fill="#000000" font-family="sans-serif" font-size="13" lengthAdjust="spacing" textLength="252.5479" x="281.5176" y="194.7622">set _isSaving=true (evita duplo clique)</text></g><path d="M172.1416,227.8281 L236.5845,227.8281 L236.5845,234.9609 L226.5845,244.9609 L172.1416,244.9609 L172.1416,227.8281" fill="#EEEEEE" style="stroke:#000000;stroke-width:1.5;"/><rect fill="none" height="148.4688" style="stroke:#000000;stroke-width:1.5;" width="745.665" x="172.1416" y="227.8281"/><text fill="#000000" font-family="sans-serif" font-size="13" font-weight="bold" lengthAdjust="spacing" textLength="19.4429" x="187.1416" y="240.895">alt</text><text fill="#000000" font-family="sans-serif" font-size="11" font-weight="bold" lengthAdjust="spacing" textLength="219.1782" x="251.5845" y="240.0386">[Novo registro (_editingId == null)]</text><g class="message" data-participant-1="View" data-participant-2="DBH"><polygon fill="#181818" points="539.0654,262.0938,549.0654,266.0938,539.0654,270.0938,543.0654,266.0938" style="stroke:#181818;stroke-width:1;"/><line style="stroke:#181818;stroke-width:1;" x1="261.4722" x2="545.0654" y1="266.0938" y2="266.0938"/><text fill="#000000" font-family="sans-serif" font-size="13" font-weight="bold" lengthAdjust="spacing" textLength="9.0454" x="268.4722" y="261.0278">3</text><text fill="#000000" font-family="sans-serif" font-size="13" lengthAdjust="spacing" textLength="183.8535" x="281.5176" y="261.0278">insert(Pessoa(nome, idade))</text></g><g class="message" data-participant-1="DBH" data-participant-2="DB"><polygon fill="#181818" points="826.2236,291.2266,836.2236,295.2266,826.2236,299.2266,830.2236,295.2266" style="stroke:#181818;stroke-width:1;"/><line style="stroke:#181818;stroke-width:1;" x1="556.0654" x2="832.2236" y1="295.2266" y2="295.2266"/><text fill="#000000" font-family="sans-serif" font-size="13" font-weight="bold" lengthAdjust="spacing" textLength="9.0454" x="563.0654" y="290.1606">4</text><text fill="#000000" font-family="sans-serif" font-size="13" lengthAdjust="spacing" textLength="166.1563" x="576.1108" y="290.1606">INSERT INTO pessoas (...)</text></g><line style="stroke:#000000;stroke-width:1;stroke-dasharray:2,2;" x1="172.1416" x2="917.8066" y1="304.2266" y2="304.2266"/><text fill="#000000" font-family="sans-serif" font-size="11" font-weight="bold" lengthAdjust="spacing" textLength="170.9995" x="177.1416" y="314.437">[Edi&#231;&#227;o (_editingId != null)]</text><g class="message" data-participant-1="View" data-participant-2="DBH"><polygon fill="#181818" points="539.0654,335.1641,549.0654,339.1641,539.0654,343.1641,543.0654,339.1641" style="stroke:#181818;stroke-width:1;"/><line style="stroke:#181818;stroke-width:1;" x1="261.4722" x2="545.0654" y1="339.1641" y2="339.1641"/><text fill="#000000" font-family="sans-serif" font-size="13" font-weight="bold" lengthAdjust="spacing" textLength="9.0454" x="268.4722" y="334.0981">5</text><text fill="#000000" font-family="sans-serif" font-size="13" lengthAdjust="spacing" textLength="212.7227" x="281.5176" y="334.0981">update(Pessoa(id, nome, idade))</text></g><g class="message" data-participant-1="DBH" data-participant-2="DB"><polygon fill="#181818" points="826.2236,364.2969,836.2236,368.2969,826.2236,372.2969,830.2236,368.2969" style="stroke:#181818;stroke-width:1;"/><line style="stroke:#181818;stroke-width:1;" x1="556.0654" x2="832.2236" y1="368.2969" y2="368.2969"/><text fill="#000000" font-family="sans-serif" font-size="13" font-weight="bold" lengthAdjust="spacing" textLength="9.0454" x="563.0654" y="363.231">6</text><text fill="#000000" font-family="sans-serif" font-size="13" lengthAdjust="spacing" textLength="240.1128" x="576.1108" y="363.231">UPDATE pessoas SET ... WHERE id=?</text></g><g class="message" data-participant-1="View" data-participant-2="View"><line style="stroke:#181818;stroke-width:1;" x1="261.4722" x2="303.4722" y1="434.6953" y2="434.6953"/><line style="stroke:#181818;stroke-width:1;" x1="303.4722" x2="303.4722" y1="434.6953" y2="447.6953"/><line style="stroke:#181818;stroke-width:1;" x1="262.4722" x2="303.4722" y1="447.6953" y2="447.6953"/><polygon fill="#181818" points="272.4722,443.6953,262.4722,447.6953,272.4722,451.6953,268.4722,447.6953" style="stroke:#181818;stroke-width:1;"/><text fill="#000000" font-family="sans-serif" font-size="13" font-weight="bold" lengthAdjust="spacing" textLength="9.0454" x="268.4722" y="414.4966">7</text><text fill="#000000" font-family="sans-serif" font-size="13" lengthAdjust="spacing" textLength="128.2607" x="281.5176" y="399.3638">_limparFormulario()</text><text fill="#000000" font-family="sans-serif" font-size="13" lengthAdjust="spacing" textLength="172.834" x="281.5176" y="414.4966">_refresh() (_reloadTick++)</text><text fill="#000000" font-family="sans-serif" font-size="13" lengthAdjust="spacing" textLength="102.7178" x="281.5176" y="429.6294">_isSaving=false</text></g><g class="message" data-participant-1="View" data-participant-2="User"><polygon fill="#181818" points="45.6021,487.9609,35.6021,491.9609,45.6021,495.9609,41.6021,491.9609" style="stroke:#181818;stroke-width:1;"/><line style="stroke:#181818;stroke-width:1;stroke-dasharray:2,2;" x1="39.6021" x2="255.4722" y1="491.9609" y2="491.9609"/><text fill="#000000" font-family="sans-serif" font-size="13" font-weight="bold" lengthAdjust="spacing" textLength="9.0454" x="51.6021" y="479.3286">8</text><text fill="#000000" font-family="sans-serif" font-size="13" lengthAdjust="spacing" textLength="139.2549" x="64.6475" y="471.7622">SnackBar ("sucesso")</text><text fill="#000000" font-family="sans-serif" font-size="13" lengthAdjust="spacing" textLength="98.6934" x="64.6475" y="486.895">lista atualizada</text></g><!--SRC=[bP9DRjj038NtSmfMAmb9tNq0jN1W5SucDIAvtGGG60tj4XdFAFEZ0hrDqKKFuekLaXqtAP95LXAWznu_yWbJT3RjxiWhxABpi0xa0GDawv3slpoxJFNe8tVSeusGjIiAmM5OuPRgY96oKVsLwSTptG8Ztc6W9PcU_2HQN2vVra0U7ZQ68nL7dL9b2VFzd_rl1zf1Eg90MQg9x_t7QI9SmCeB3ZkBaCsr1CkR_r2Z6T1duqOy2E81RtBySmveM2DidDybCyNVsa0HMWur3cotPVH9q6ZWYA1JRnnqXXyI5KgXYN3j1WUUjXoYTv2tf3cAxKeB9jXaJA407eVAxZAJPOAF-U64kNKxEWU1q5ICsXFkU2YOB9CJn7brNLStZJoQBz0V6e1yDfkDFatFd6JaefNcm_cUShrxZIlrMjoFNApFuIriwzLYtbGdhBfgGCZWsxAwgIIY_FG2ezNg_q9QmplvFJvFXQ3qaHUtjlMqaOg_vuLiuiaur0rtzsTduxTJKnkKdOzv4ZZz8nTGM-pkBz53deNKZNIPk8pqXO0nIVy_KQDwWZOc_0K0]--></g></svg>